/* XPM */
static char *result[] = {
/* columns rows colors chars-per-pixel */
"32 32 251 2 ",
"   c black",
".  c #010000",
"X  c #000100",
"o  c #010101",
"O  c #020001",
"+  c #000201",
"@  c #000002",
"#  c #030305",
"$  c #030406",
"%  c #040509",
"&  c #050608",
"*  c #05060A",
"=  c #0B0E15",
"-  c #0C0F14",
";  c #0C0F18",
":  c #0D1113",
">  c #0F1219",
",  c #0E111A",
"<  c #0E121B",
"1  c #0E101C",
"2  c #101113",
"3  c #101318",
"4  c #13171A",
"5  c #12171B",
"6  c #11161C",
"7  c #14171C",
"8  c #10181B",
"9  c #11181E",
"0  c #171C1F",
"q  c #0E1326",
"w  c #0E1329",
"e  c #0F142A",
"r  c #121621",
"t  c #151422",
"y  c #171C20",
"u  c #161D25",
"i  c #171E26",
"p  c #191E22",
"a  c #1A1F25",
"s  c #10152B",
"d  c #11162C",
"f  c #12162F",
"g  c #1A1728",
"h  c #171D29",
"j  c #161C2C",
"k  c #191F2D",
"l  c #131732",
"z  c #161735",
"x  c #131931",
"c  c #131933",
"v  c #141833",
"b  c #161C34",
"n  c #171D3F",
"m  c #1C2123",
"M  c #1B2324",
"N  c #1D2226",
"B  c #1F2427",
"V  c #1B222A",
"C  c #1D212C",
"Z  c #1C222E",
"A  c #1D232F",
"S  c #1D242E",
"D  c #1F2630",
"F  c #1A2038",
"G  c #1C243B",
"H  c #202626",
"J  c #202528",
"K  c #212733",
"L  c #222A35",
"P  c #232B35",
"I  c #232B36",
"U  c #222A37",
"Y  c #222C35",
"T  c #222C36",
"R  c #262F34",
"E  c #262F3E",
"W  c #2A3338",
"Q  c #2A343E",
"!  c #333B3D",
"~  c #2C1645",
"^  c #2B1F43",
"/  c #2F1947",
"(  c #271D4F",
")  c #271F50",
"_  c #212741",
"`  c #2C2247",
"'  c #262A47",
"]  c #293241",
"[  c #293144",
"{  c #2C3546",
"}  c #2E3B4B",
"|  c #2F3B4B",
" . c #222351",
".. c #262050",
"X. c #272151",
"o. c #242657",
"O. c #282051",
"+. c #282252",
"@. c #2A2454",
"#. c #2C2455",
"$. c #282A50",
"%. c #222A59",
"&. c #21295A",
"*. c #23295B",
"=. c #232B5A",
"-. c #222A5B",
";. c #27295A",
":. c #242A5A",
">. c #212C5A",
",. c #242C5B",
"<. c #232B5C",
"1. c #262E5F",
"2. c #2B2F5F",
"3. c #273155",
"4. c #393651",
"5. c #303C54",
"6. c #333E5C",
"7. c #283361",
"8. c #2A3263",
"9. c #2B3664",
"0. c #2E3D67",
"q. c #303461",
"w. c #343865",
"e. c #343F6C",
"r. c #343F6D",
"t. c #403E65",
"y. c #3A4040",
"u. c #35424A",
"i. c #35414D",
"p. c #3C494F",
"a. c #354051",
"s. c #384661",
"d. c #34406A",
"f. c #37456C",
"g. c #37446E",
"h. c #38456F",
"j. c #3F4D6A",
"k. c #3A486F",
"l. c #3C4A71",
"z. c #3C4973",
"x. c #3D4B72",
"c. c #3E4C71",
"v. c #3E4C73",
"b. c #3E4D76",
"n. c #475151",
"m. c #4B5457",
"M. c #43515C",
"N. c #43545E",
"B. c #535B5B",
"V. c #555B5B",
"C. c #414A67",
"Z. c #404C64",
"A. c #404268",
"S. c #435360",
"D. c #455467",
"F. c #495A64",
"G. c #4A5B65",
"H. c #4B5C66",
"J. c #425168",
"K. c #42526B",
"L. c #45566A",
"P. c #46566F",
"I. c #4B5B6B",
"U. c #4B5C6E",
"Y. c #404F76",
"T. c #494F73",
"R. c #445370",
"E. c #415077",
"W. c #425077",
"Q. c #4A5074",
"!. c #475874",
"~. c #415379",
"^. c #44537A",
"/. c #445478",
"(. c #46567A",
"). c #47597F",
"_. c #48587C",
"`. c #4D5B7E",
"'. c #4C5C7D",
"]. c #4C5C7E",
"[. c #4D5D7F",
"{. c #59707E",
"}. c #4C5F80",
"|. c #4D6081",
" X c #4E6182",
".X c #516580",
"XX c #516387",
"oX c #516484",
"OX c #5C6C85",
"+X c #5C6C86",
"@X c #536788",
"#X c #546889",
"$X c #556A89",
"%X c #566B8A",
"&X c #576C8B",
"*X c #586C8D",
"=X c #596E8D",
"-X c #5A6F8E",
";X c #5F758A",
":X c #5D728F",
">X c #627583",
",X c #607683",
"<X c #607684",
"1X c #607594",
"2X c #617695",
"3X c #637B95",
"4X c #617897",
"5X c #637B97",
"6X c #627998",
"7X c #657C9B",
"8X c #67809C",
"9X c #69819B",
"0X c #68809C",
"qX c #6B859E",
"wX c #6A869E",
"eX c #6C869F",
"rX c #798C9A",
"tX c #6B82A1",
"yX c #6B84A0",
"uX c #6B84A2",
"iX c #6D86A2",
"pX c #7189A3",
"aX c #728CA3",
"sX c #728EA6",
"dX c #738EA9",
"fX c #748FAA",
"gX c #7693A5",
"hX c #7594A6",
"jX c #7490A8",
"kX c #7793AB",
"lX c #7996A8",
"zX c #7995AD",
"xX c #7B95AE",
"cX c #7C98AE",
"vX c #83A2B7",
"bX c #85A1B7",
"nX c #89A0B2",
"mX c #82A0B8",
"MX c #83A1B9",
"NX c #84A3B8",
"BX c #85A4B8",
"VX c #88A7BB",
"CX c #8DA8BD",
"ZX c #89ADBD",
"AX c #8BACBF",
"SX c #96B1C2",
"DX c #9DB9C5",
"FX c #9FBBC7",
"GX c #A1BFCA",
"HX c #A5C1CD",
"JX c #A4C2CD",
/* pixels */
"                                                                ",
"                          .               O                     ",
"                                  @     @                       ",
"                              ;         @     o                 ",
"                  X 2 ! y.y.W K.R i u V :     .                 ",
"                    7 I.OX+XR._.j.^ ` ' 6 X                     ",
"                    $ i.kXmX-XoX|.o.2._ #                       ",
"                      a S.F.s.A.4.f b r   o                     ",
"  X             o           k #Xe                       X       ",
"                .           I qXw     .                         ",
"                .           I eXs                       X o     ",
"    .       @ .             T qXe o                           X ",
"                            I qXe           .                   ",
"o       @ X             X   I wXe             X     .           ",
"          4 n.B.B.B.B.V.m.p.D.5XJ.u.Q I I I I T L 0 .     .     ",
"    @     S gXVXVXVXVXVXxX:X$X&X$XoXd.=.<.:.=.%.>.L         X   ",
"          X q c.E.Y.W.E.h.7.1.1.1.;./ ~ ~ ~ ~ ~ d               ",
"            I BXAXZXAXAXiX%X%X%X%X%X(.-.-.&.*.-.]               ",
"            i {.,X<X,X>XU.Z.'.Q.T.C.5.n n n n n C               ",
"              .           t .Xt.( g           @ .   X @ o       ",
"    o                     Z lX=X<.I                           o ",
"  o @                   . A lX=X=.I     X       X           o   ",
"    @     o     o @   @   A lX=X,.Y             .               ",
"  X     X @               A lX=X>.P                             ",
"                    .   + S hX*X=.U     @                 X   @ ",
"  & m J J B J J J J H M y E 3X).0.[ 5 > = = = = = = = = , &     ",
"o p CXGXGXGXGXGXGXGXGXSXsX0X0X9X0X8X2X~.d.e.e.e.e.e.r.e.~.h   . ",
"  3 ;XaXfXjXfXfXfXfXdXtX@X`.].].[.].^.q...X.X.X.X.X.+. .3.1 o o ",
"  * K P.4X7X7X7X7X7X6XXXb.l.l.x.l.l.k.w.#.O.+.X.) X.@.$.j %     ",
"    - L.zXbXNXvXMXvXcX1X|.|.|. X}. X|./.9.-.-.-.-.-.8.6.9   @   ",
"    N rXDXHXJXHXHXHXFXnXpXyXuXyXyXyX0X$Xv.g.g.g.g.f.z.!.D       ",
"@   8 M.H.H.H.H.H.H.G.N.a.| | | | } { G c v v z v l x F <       "
};
