/* XPM */
static char *ad22b280b93d497cfa129df57c2924da7VbRMZO2IMdWA2YJ[] = {
/* columns rows colors chars-per-pixel */
"32 32 31 1 ",
"  c #C9E9FE",
". c #CFEBFF",
"X c #D6EBFE",
"o c #D3EDFE",
"O c #D6EDFD",
"+ c #D8EFFD",
"@ c #D8EDFE",
"# c #DAEFFF",
"$ c #D9F0FE",
"% c #DEF1FF",
"& c #DDF3FF",
"* c #E2F3FD",
"= c #E1F3FF",
"- c #E3F4FE",
"; c #E6F4FD",
": c #E4F5FF",
"> c #E8F7FE",
", c #E9F6FF",
"< c #EEF6FF",
"1 c #EBF8FF",
"2 c #EFF8FF",
"3 c #F0F7FD",
"4 c #F3FBFD",
"5 c #F0F9FF",
"6 c #F5FAFD",
"7 c #F6FBFF",
"8 c #F4FCFF",
"9 c #F8FBFF",
"0 c #F8FCFD",
"q c #FEFEFC",
"w c white",
/* pixels */
"wwwwwwwwwwwwwwwwwwwwwwwwwwwwwwww",
"w0wwwwwwwwwwwwww9w97wwwwwwww007w",
"w725005w70750www590550w0727w5<<w",
"02-=51-07:=75=9w=53:o:252,:75050",
"w<5<1@,522,-,-22,<%:,5%%5%%-7050",
"w555:o7:505:72X-50,5w7%o2-o:0050",
"w7555<w:<0w7w7o,ww,7w71=%$;,0717",
"w3%<79w=5w2,7<--09@577<,,:5,,0o0",
"w5$=057222&&,,72<<5323;7w:57%,=w",
"w2%5422771-1,<72=;w5o<50w<07%7;w",
"002271%072475:79,970-2500557,7,9",
"w74-27%00-005@35:5w7,7770=5,=5,0",
"057-%5.75o72:$:,=,0,,w<%@=7,=<,w",
"w5,7$: %-$-,$15,@O5,=7<:5:=0==;w",
"w,-75:1,252--7w5O,%::,,70559:o%w",
"w7%77572742::00w,27ww$59w050<o,w",
"ww$077724275@9902:0002174759<5<w",
"w0::2,22%27,o50w7=,00,-75-$:=0:w",
"99-o%-%o$17:o:,52%%05$--1%=%27:w",
"09<7145:$o27%oo70,%2%o-;o$557<<w",
"02-750ww:2070%570227,%w05-072:5q",
"w=%707w01q775:7ww0ww25wwwww7%o,q",
"w1%w0o$--,722%:72,ww72w09704:7<0",
"w2$72%$%%,-,@$%=.$w07,w73,0107-0",
"w7:%:w5@70%-22-:-o122-52,%51w7,w",
"w729500500:177-07-12o%11:<-10:,0",
"7<2w700520-,07-74-241$o-22%,7%,7",
"2-2w221$%2.,04-72--21-$$<7-&=2,7",
"0oO%,--2,%-;7:o5$$->$-4$-.$::5,7",
"w2%222-00751,555-20724727720%$:0",
"w21www412735257112571252-124,:,w",
"www0w0wwww00ww0ww7ww75544w755www"
};
