/* XPM */
static char *_cacea7a82624835943ae1416b411651elhtar6nIjTV3uD1[] = {
/* columns rows colors chars-per-pixel */
"72 72 7 1 ",
"  c None",
". c black",
"X c #38002C",
"o c #222A5C",
"O c #566A89",
"+ c #8BABBF",
"@ c #CCE2E1",
/* pixels */
"                                                                        ",
"                                                                        ",
"                                                                        ",
"                                                                        ",
"                                                                        ",
"                                                                        ",
"                                                                        ",
"                                                                        ",
"                                 ....                                   ",
"                                 .Oo.                                   ",
"                       ...........Oo...........                         ",
"                       .+@@@@@@@++++++OOOOOOO+.                         ",
"                       .O+++++++OOOOOOoooooooO.                         ",
"                       ...ooooooooooooXXXXXo...                         ",
"                         .O+++++OOOOOOoooooO.                           ",
"                         .O+++++OOOOOOoooooO.                           ",
"                         .O+++++OOOOOOoooooO.                           ",
"                         ........ooXX........                           ",
"                                .oOoo.                                  ",
"                                .O+Oo.                                  ",
"                                .O+Oo.                                  ",
"                                .O+Oo.                                  ",
"                                .O+Oo.                                  ",
"                                .O+Oo.                                  ",
"                                .O+Oo.                                  ",
"                                .O+Oo.                                  ",
"                                .O+Oo.                                  ",
"                                .O+Oo.                                  ",
"                                .O+Oo.                                  ",
"                                .O+Oo.                                  ",
"                                .O+Oo.                                  ",
"                                .O+Oo.                                  ",
"            .....................oOoo.....................              ",
"            .+@@@@@@@@@@@@@@@++++++++++++OOOOOOOOOOOOOOO+.              ",
"            .O+++++++++++++++OOOOOOOOOOOOoooooooooooooooO.              ",
"            .O+++++++++++++++OOOOOOOOOOOOoooooooooooooooO.              ",
"            ...oooooooooooooooooooooooooXXXXXXXXXXXXXXo...              ",
"              .oOOOOOOOOOOOOOoooooooooooooooooooooooooo.                ",
"              .O++++++++++++OOOOOOOOOOOOOOooooooooooooO.                ",
"              .O++++++++++++OOOOOOOOOOOOOOooooooooooooO.                ",
"              .O++++++++++++OOOOOOOOOOOOOOooooooooooooO.                ",
"              .O++++++++++++OOOOOOOOOOOOOOooooooooooooO.                ",
"              .................XooXXXXX.................                ",
"                              .oOOooooo.                                ",
"                              .O++OOooO.                                ",
"                              .O++OOooO.                                ",
"                              .O++OOooO.                                ",
"                              .O++OOooO.                                ",
"                              .O++OOooO.                                ",
"                              .O++OOooO.                                ",
"                              .O++OOooO.                                ",
"                              .O++OOooO.                                ",
"                              .O++OOooO.                                ",
"                              .O++OOooO.                                ",
"                              .O++OOooO.                                ",
"                              .O++OOooO.                                ",
"                              .O++OOooO.                                ",
"   ............................oOOooooo............................     ",
"   .+@@@@@@@@@@@@@@@@@@@@@@++++++++++++++++OOOOOOOOOOOOOOOOOOOOOO+.     ",
"   .O++++++++++++++++++++++OOOOOOOOOOOOOOOOooooooooooooooooooooooO.     ",
"   .O++++++++++++++++++++++OOOOOOOOOOOOOOOOooooooooooooooooooooooO.     ",
"   .O++++++++++++++++++++++OOOOOOOOOOOOOOOOooooooooooooooooooooooO.     ",
"   .O++++++++++++++++++++++OOOOOOOOOOOOOOOOooooooooooooooooooooooO.     ",
"   ....oooooooooooooooooooooooooooooooooooooXXXXXXXXXXXXXXXXXXo....     ",
"      .oOOOOOOOOOOOOOOOOOOooooooooooooooooooooooooooooooooooooO.        ",
"      .OO++++++++++++++++OOOOOOOOOOOOOOOOOOOOooooooooooooooooOO.        ",
"      .OO++++++++++++++++OOOOOOOOOOOOOOOOOOOOooooooooooooooooOO.        ",
"      .OO++++++++++++++++OOOOOOOOOOOOOOOOOOOOooooooooooooooooOO.        ",
"      .OO++++++++++++++++OOOOOOOOOOOOOOOOOOOOooooooooooooooooOO.        ",
"     .+@@@@@@@@@@@@@@@@@@@@++++++++++++++++OOOOOOOOOOOOOOOOOOOO+.       ",
"     .O++++++++++++++++++++OOOOOOOOOOOOOOOOooooooooooooooooooooO.       ",
"     ............................................................       "
};
