/* XPM */
static char *_dac572d1b1b4db88f4d30d68747bc77yaau6QXe7qpYryLM[] = {
/* columns rows colors chars-per-pixel */
"32 32 93 2 ",
"   c #4D5959",
".  c #515C5D",
"X  c #565F63",
"o  c #566162",
"O  c #5A6365",
"+  c #5D6669",
"@  c #5F696B",
"#  c #626A6D",
"$  c #666E71",
"%  c #696F74",
"&  c #677074",
"*  c #6B7276",
"=  c #6E757B",
"-  c #71767C",
";  c #72797D",
":  c #757C82",
">  c #797E84",
",  c #787F89",
"<  c #7B8186",
"1  c #7C848A",
"2  c #7D888E",
"3  c #7F8690",
"4  c #81868C",
"5  c #84898E",
"6  c #858790",
"7  c #858B93",
"8  c #898D95",
"9  c #878F99",
"0  c #8A8F99",
"q  c #869197",
"w  c #8C9097",
"e  c #869099",
"r  c #8B929B",
"t  c #91949D",
"y  c #95989F",
"u  c #8F96A0",
"i  c #9296A1",
"p  c #949BA5",
"a  c #9A9AA4",
"s  c #969DA9",
"d  c #999FAA",
"f  c #97A4AD",
"g  c #9BA1AD",
"h  c #9EA5B1",
"j  c #A1A4AD",
"k  c #A7A8AD",
"l  c #A1A6B2",
"z  c #A4AAB6",
"x  c #A6ADBA",
"c  c #AAAEBB",
"v  c #A7B0BD",
"b  c #AAB1BD",
"n  c #B3B6BD",
"m  c #ACAFC0",
"M  c #ADB5C2",
"N  c #AEB8C5",
"B  c #B1B6C5",
"V  c #B3B9C5",
"C  c #BABDC6",
"Z  c #B3BBCA",
"A  c #B9BECC",
"S  c #BBC2CC",
"D  c #BCC4D2",
"F  c #C1C7D3",
"G  c #C3CBD5",
"H  c #CBCED7",
"J  c #C2CBDB",
"K  c #C9CEDB",
"L  c #CDD2DC",
"P  c #D1D5DE",
"I  c #C6CFE0",
"U  c #C6D2E0",
"Y  c #CDD6E5",
"T  c #CDD5E8",
"R  c #CED9EB",
"E  c #D1D6E2",
"W  c #D5D9E3",
"Q  c #D9DEE6",
"!  c #D3DCEB",
"~  c #DBDFE9",
"^  c #DEE2EB",
"/  c #E3E6EC",
"(  c #E5E8EF",
")  c #E2E6F1",
"_  c #E5EBF4",
"`  c #EDEEF3",
"'  c #E7EEF8",
"]  c #EFF2F7",
"[  c #EDF2FB",
"{  c #F3F4F6",
"}  c #F4F5F9",
"|  c #F7F8FB",
" . c #FDFDFD",
/* pixels */
" . . . . . . . . . . . . . . . . . . . . . . . . . . . . . . . .",
"}  . . . . . . . . . . . . .| | |  .|  . . . . .|  . . . . . .{ ",
"_  . . . . . . . . . .] [  . . . . . . . . . . . . . . . . . ./ ",
"D ' | {  . .}  .] } ) ! _ }  . .] ] ( { }  . . .] _ [ ' _ _ / Y ",
"g A T T E ! ! U D I T h x T ! n N N K R J L / ^ ! Y J A F I T h ",
"< v N A A Z Z V Z V x u $ 1 i g g g s f s g s g r M d d l z g : ",
"* l x v M M M M M x v z O * 4 z i s p i p s 7 s s p p p d z h * ",
"& g v z z c v x c c N x $ @ ; > f s s d d g g s d l h c c M 9 $ ",
"; b b z z v x M c M M 6 4 O ; 4 r z s h l g c l z c c c c Z 6 % ",
"* p c z x v M x M N Z 4 4 & $ ; > h v h z p l z x x c c B D 4 * ",
"< : q g x m m M N A D < 5 : X ; > : - 7 c z z x c c c c v B 6 , ",
"7 ; F C m M x M Z Z M r r 5 + % : = $ V l l l c c x c n D s < 4 ",
"5 5 V M v g M M Z K 4 p 8 5 % X + # : i M v c z c c c c B p 1 2 ",
"7 8 i F M N M Z D K d p 8 8 : X X > 5 4 l M M c c c m M Z 7 7 1 ",
"4 a 5 K M M V V x 7 g g r 0 - + o 1 8 8 t m N c M M m M D 1 7 > ",
"- l 8 G N M N V K v r d 0 4 = * X + , > p 0 l J Z M M A l 9 8 : ",
"* g s b S N N C B l z g g & & f g x h @ < w 8 g S L J Y 0 8 7 - ",
"* a a i V A B F d l z h 8 & r h l M h 7 * ; 8 5 r z z z 2 1 2 # ",
"% y a s s A H H c z l 4 @ < u z h m N 3 # ; 4 7 0 8 5 h 4 2 1 $ ",
"# 0 7 y r w g g l p u = : u w z h x M 1 & & 1 4 8 7 6 p 3 1 : # ",
"# 4 j 8 a k j * ; a > ; r g w v h h b < : @ @ < 4 5 6 i 1 > 7 % ",
"$ 4 w w 0 0 4 4 > < ; 8 i k t b x x n 2 = $ @ : - 4 2 r 1 , > % ",
"# 8 8 8 8 8 4 : > > - t z g 2 e s M S ; = & O = : > 1 r 1 > 1 X ",
"% 6 t 8 6 * y 1 > $ 8 l f 8 2 < 1 < q q < ; O * : : > 9 : : : O ",
"# w 8 1 2 : 4 > O r f e : : : = ; < : 2 8 : * % < : 1 e - = =   ",
"# 7 8 2 = 1 > * @ p r 1 7 1 < * & = < 1 : e % X < : = e * 1 %   ",
". 4 < - # , > X = & 1 w 7 7 1 1 2 2 2 1 < O + . : : : u 9 1 $   ",
". . O . . : . .   X   . & = : 2 < 2 = @ o o + % o > s s h e   . ",
"4 = : y i + ; : p d 4 - 5 1 O + O # = y p j d d s & O = : O : 8 ",
"~ W K K P H L W Q ~ ~ Y E G F D Z V C L E Q ~ Q P D Z n S L E W ",
" .|  .}  .} } |  .|  .| ` ` ] / / _ ) { |  . . . .} ] / ^ }  . .",
" . . . . . . . . . . . . . . . . . . . . . . . . . . . . . . . ."
};
