/* XPM */
static char *result[] = {
/* columns rows colors chars-per-pixel */
"32 32 106 2 ",
"   c #9DA30F",
".  c #AFB419",
"X  c #B0B513",
"o  c #B4BA15",
"O  c #B7BB26",
"+  c #AAAF37",
"@  c #B2B439",
"#  c #DEBD01",
"$  c #C8BD16",
"%  c #DFBF14",
"&  c #D9BD1C",
"*  c #E1BE03",
"=  c #C4BB22",
"-  c #CEB826",
";  c #D7BB2C",
":  c #BAC217",
">  c #BEC419",
",  c #BEC13C",
"<  c #C4C414",
"1  c #C0C719",
"2  c #D5C915",
"3  c #DDCF17",
"4  c #E5C205",
"5  c #E8C207",
"6  c #ECC60B",
"7  c #EECB0E",
"8  c #F2CD0D",
"9  c #F3D10E",
"0  c #E4C012",
"q  c #E5CE17",
"w  c #F3CD10",
"e  c #F7D212",
"r  c #FCD516",
"t  c #FAD815",
"y  c #F4D61C",
"u  c #FBD61A",
"i  c #FAD81E",
"p  c #DEC121",
"a  c #C2C43D",
"s  c #DCC43E",
"d  c #F6D524",
"f  c #FBDA23",
"g  c #FCD629",
"h  c #FBDC2C",
"j  c #E3C936",
"k  c #FDDE32",
"l  c #FCDF39",
"z  c #FFE23E",
"x  c #B4B75C",
"c  c #BEC172",
"v  c #D8C75D",
"b  c #DDD952",
"n  c #EAD44D",
"m  c #F0DB5C",
"M  c #FFE241",
"N  c #F9E04F",
"B  c #D5D863",
"V  c #C9C875",
"C  c #CBC97E",
"Z  c #DCDE73",
"A  c #DEDB7A",
"S  c #F1DD6D",
"D  c #E9D771",
"F  c #E5DD7B",
"G  c #DBDE83",
"H  c #D9DA8A",
"J  c #D0D195",
"K  c #D2D399",
"L  c #EBDC84",
"P  c #E4D68F",
"I  c #EADB88",
"U  c #E5DB96",
"Y  c #EFE48A",
"T  c #F1E283",
"R  c #F5E78F",
"E  c #F8E98C",
"W  c #EEE69B",
"Q  c #F6E794",
"!  c #FFF093",
"~  c #DADAA6",
"^  c #EBE5AD",
"/  c #F9F0AD",
"(  c #ECE3B5",
")  c #E1E1BD",
"_  c #F7F1BD",
"`  c #EAE8C2",
"'  c #F6EEC3",
"]  c #F0EBCD",
"[  c #FBF8C5",
"{  c #F0EBD5",
"}  c #F6F5DC",
"|  c #F9F7DE",
" . c #FCF8DD",
".. c #EDEDE5",
"X. c #EEEEEE",
"o. c #EEF0EE",
"O. c #F6F3E2",
"+. c #FDFBE6",
"@. c #F2F2ED",
"#. c #F9F7EB",
"$. c #EEEEF0",
"%. c #F4F4F4",
"&. c #F6F8F7",
"*. c #FCFDF6",
"=. c #F7F7F9",
"-. c #FDFDFD",
/* pixels */
"X.X.-.-.%.X.&.-.&.X.%.-.-.X.X.-.-.X.X.-.-.%.X.&.-.=.X.%.-.-.$.o.",
"X.X.-.-.%.X.=.-.=.X.$.-.-.X.X.-.-.$.@.-.-.%.X.&.-.-.X.$.-.-.X.X.",
"-.-.%.X.-.-.&.X.%.-.=.X.%.-.-.X.$.-.-.%.X.=.-.&.X.&.-.-.X.X.-.-.",
"-.-.X.X.-.-.&.X.&.-.-.X.X.-.-.%.X.-.-.X.X.-.-.&.X.%.-.-.X.%.-.-.",
"X.$.-.-.%.%.&.-.&.X.%.-.-.X.%.-.-.%.$.-.-.%.%.&.-.=.@.%.-.*.%.$.",
"X.X.-.-.X.X.=.-.&.X.%.-.-.X.X.-.-.X.X.-.-.%...=.-.=.X.@.-.-.X.X.",
"-.&.%.%.&.-.&.%.%.&.=.%.%.=.=.&.&.=.=.&.%.=.=.=.&.&.=.} B ~ =.=.",
"-.-.X.X.-.-.%.X.&.-.-.X.X.-.-.X.X.-.-.@.X.=.*.@.X.%.*., . C -.-.",
"=.&.&.%.=.=.&.&.&.=.&.&.&.=.&.&.&.&.&.&.%.&., a H G Z   J &.&.&.",
"X.X.-.-.X.X.=.-.&...%.-.-.X.X.-.-.X.X.-.-.%.O > > > o c #.-.X.X.",
"%.%.=.-.%.%.=.=.&.%.%.-.=.%.%.=.=.%.%.=.=.&.%.&.*.1 o + =.-.%.@.",
"-.-.X.X.-.-.&.X.%.-.=.X.@.-.-.X.X.-.-.X.X.-.-.&.) > X @ @.X.-.-.",
"-.-.%.X.=.-.&.X.&.-.=.%.X.-.-.%.X.-.-.%.X.=.-. .A < 1 : C @.-.-.",
"X.X.-.-.%.@.=.-.&.X.%.-.-.X.X.-.-.X.X.-.-.%.$.F y r q 3 b *.X.@.",
"X.$.-.-.$.X.=.-.%.X.%.-.-.X.X.-.-.@.X.-.-.%.{ f r r r e 2 +.X.X.",
"-.-.X.X.-.-.&.X.&.-.=.X.$.-.-.%.X.-.-.$.X._ ! r r r r r 6 - -.-.",
"-.-.X.X.-.-.%.X.=.-.*.X.%.-.-.X.X.-.-.%.T d l h r r r e * s -.-.",
"$.X.-.*.@.X.&.-.=.$.%.-.-.X.X.-.-...] E l u M h r r r 9 * W X.X.",
"o.X.*.V S T +.-.&.X.%.-.-.X.X. .Q m N h k z z f r r r # * | X.X.",
"-.*.x = u r f h m [ / R Q m g d e z z z z f f r r e w * # X.-.-.",
"-.K $ q r r g f k h f z h k M z M M z z f r r r e 7 * % ( %.-.-.",
"%.` r r r i u f M M z z z z M k h f i r r r r e * * * ( @.=.%.%.",
"o.X.p 6 r r r t r u d f i r r r t r r u r r e * * p v %.-.-.X.X.",
"&.&.^ 5 7 r r r r r r r r r r r r r r r r 8 6 # L ^ &.=.=.%.&.&.",
"-.-.$.P # 5 * r r r r r r r r r r r r r # * 0 L ..%.-.-.X.X.-.-.",
"=.=.%.&.=.I j # 4 8 8 8 8 8 8 8 5 5 * # n Y ( %.%.=.=.&.%.%.-.=.",
"@.X.-.-.@...O.' D ; # * * * # * & ; U ' *.%.X.&.-.=.X.%.-.-.X.X.",
"%.o.-.-.%.%.=.-.=.$.%.*.*.%.@.=.-.%.%.*.-.@.%.=.-.=.$.%.-.-.X.%.",
"-.-.X.%.-.-.&.$.&.-.-.X.%.-.-.X.X.-.-.$.$.=.-.&.X.%.-.-.X.X.-.-.",
"-.-.X.$.=.-.&.X.&.-.=.X.X.-.-.X.$.-.-.%.@.=.-.=.X.&.-.=.X.X.-.-.",
"o.X.-.-.$.X.&.-.&.X.%.-.-.X.$.-.-.X.X.-.-.%.@.=.-.=.X.%.-.-.%.X.",
"X.$.-.-.%.X.-.-.&.X.%.-.-.X.@.-.-.X.X.-.-.%.X.=.-.=.X.%.-.-.X.X."
};
