/* XPM */
static char *result[] = {
/* columns rows colors chars-per-pixel */
"32 32 18 1 ",
"  c #E88500",
". c #DCA200",
"X c #FFA100",
"o c #FFA200",
"O c #FDA500",
"+ c #EABA00",
"@ c #E8BC00",
"# c #EABC00",
"$ c #FDD200",
"% c #FDD300",
"& c #FFE200",
"* c #FFE600",
"= c #FEF06A",
"- c #FEF786",
"; c #FEF787",
": c #FEF788",
"> c #FEFDFC",
", c None",
/* pixels */
",,,,,,,,,,,,,,,,,,,,,,,,,,,,,,,,",
",,,,,,,,,,,,,,,,,,,,,,,,,,,,,,,,",
",,,,,,,,,,,,,,,,,,,,,,,,,,,,,,,,",
",,,,,,,,,===;;;;;;;;;;;+,,,,,,,,",
",,,,,,,,@@==-;;;;;;;;-+=+,,,,,,,",
",,,,,,,@@@==++++++++++==++,,,,,,",
",,,,,,*+###=+========+==+;;,,,,,",
",,,,,***+@@=++======++==;;;%,,,,",
",,,,,###****;;;;;;:;;>;>;%%%,,,,",
",,,,,#*##*>;;;;;;;;;;;>*%%%%,,,,",
",,,,,##*#@>;.#######.;>+%%%%,,,,",
",,,,,#*###>#;.......;*>#  #%,,,,",
",,,,,XX*##>##;>>>>>;##;#  #%,,,,",
",,,,,XXX##;##&>>>>>###;# ##%,,,,",
",,,,,XXo##;##&&>>>&###>##XX%,,,,",
",,,,,XXo##;&  &&>&&  #;##XX%,,,,",
",,,,,XX=##;&  ;OOO;   ;##XX%,,,,",
",,,,,X=X##;& ;     ;  ;@#XX%,,,,",
",,,,,Xo=##;&;       ; ;@#XX%,,,,",
",,,,,===##;;         ;;##XX%,,,,",
",,,,,===#&;>;;>>>;;>>>>@#=X%,,,,",
",,,,,==&&;;;;;;;;;;;>>;>@===,,,,",
",,,,,=&&;;@@@       @@;;>&==,,,,",
",,,,,;;;;@@@&&     &&@@@;;&$,,,,",
",,,,,,;;+@@&&&.....&&&@##;@,,,,,",
",,,,,,,@@@@%%%.....%%%&#@#,,,,,,",
",,,,,,,,@@%%%%%...%%%%%&@,,,,,,,",
",,,,,,,,,@%%%%.....%%%%@,,,,,,,,",
",,,,,,,,,,,,,,,,,,,,,,,,,,,,,,,,",
",,,,,,,,,,,,,,,,,,,,,,,,,,,,,,,,",
",,,,,,,,,,,,,,,,,,,,,,,,,,,,,,,,",
",,,,,,,,,,,,,,,,,,,,,,,,,,,,,,,,"
};
