/* XPM */
static char *fbf19795fde949f2f1e2f40d5210fa561MqRBr5CpcW0l5cC[] = {
/* columns rows colors chars-per-pixel */
"32 32 43 1 ",
"  c #0F0F69",
". c #3C1E8C",
"X c #0F379B",
"o c #573CDA",
"O c #1469C3",
"+ c #7962E9",
"@ c #14A0CD",
"# c #41D7D7",
"$ c #9784F0",
"% c #82FFE1",
"& c #A7EDF0",
"* c #E2CBFF",
"= c #CFEBFF",
"- c #CEEDFF",
"; c #D6EBFE",
": c #D3EDFE",
"> c #D3EEFF",
", c #D7EEFF",
"< c #D8EDFE",
"1 c #D9EEFF",
"2 c #D9F0FE",
"3 c #DAF0FE",
"4 c #DEF1FF",
"5 c #E1F3FF",
"6 c #E3F4FE",
"7 c #E6F4FD",
"8 c #E4F5FF",
"9 c #E8F7FE",
"0 c #E9F6FF",
"q c #EEF6FF",
"w c #EBF8FF",
"e c #EFF8FF",
"r c #EEF9FF",
"t c #F2FAFD",
"y c #F3FBFD",
"u c #F1F8FE",
"i c #F0F9FF",
"p c #F6FBFF",
"a c #F7FCFF",
"s c #F8FBFF",
"d c #F8FCFD",
"f c #FEFEFC",
"g c white",
/* pixels */
"gggggggggggggggggggggggggggggggg",
"gdggggggggggggggsgspggggggggaapg",
"gpeiddigddaedgggisdiidgdaipgieqg",
"de65iw6dp55ai5sg5ui8:8eii08pided",
"gqiqw<0iee0607ii8q478q44e4<4pdid",
"giii8:p8edy6ii;4ug0igd4:e640dded",
"gpiiiqg8qdgggggggggggg054380aawa",
"gi4qpsg5gg&&&&&&&&&&%%g.86i08a<d",
"gy36aeggg&&gg&g&&&&%%%#+o.ia405g",
"di4eag%%*g&&&&&&&&%%%#gXXo.d5p7g",
"daeeg%g%%*g&&&&%%%%%#gOOXXo.7p8d",
"dppg%g%%%%*gggggg***+@OOOXXo.p0d",
"dag%g%g%%%%g*****@@@X@OOOXXXo 0g",
"ggg%%g%%%%g##%#####@@X@OOOXX.o g",
"gg$g%%%%%%g#%#####@@@X@OOOXX   g",
"gag$gg%%%g##%#####@@@OX@OO  . qs",
"ggg%$$gg%g#######@@@OoX@  ... qg",
"gd5g%%$$@@######@@OOoo  ..O. a0g",
"ss8,g%g#$$@ggOOOOO@@XX..OO. ia6g",
"ddqp8g%g##++++++++ooo.OOX. qy0qg",
"de6aidg%g#+##@@OOOOO.OXX. dye8if",
"g54dapg*###g##@@OOOo.OX. gga4<0f",
"g04dd:38*##g##@@OOo.OX. apda8a0d",
"gi3ai4344*##g##@@Oo.O. pi8d0dd8d",
"gp848gi<pg*##+#@@O.O. ii04iwgp8g",
"gpesiddidd6g#+##@@.. 4ww0q6wd87g",
"piigaadeid6w+@+#@...w3:6ei3wp50p",
"i5igee044i=0dg+#@..ew6:3qp465i8p",
"a:,4666e0488a6g++.6w36y36-365i0p",
"ge4iye8adii0wie+.eaaeadeapwa438d",
"giwgggy0eayeeepwweye0wie80ia080g",
"gggdgdggggdaggdggsggeyeaagaiiggg"
};
