/* XPM */
static char *_c4cb30028c64fb28454a4a530bc9991eIeK7OVKFhI1MTrQ[] = {
/* columns rows colors chars-per-pixel */
"32 32 35 1 ",
"  c black",
". c #3A0911",
"X c #811426",
"o c #A11B31",
"O c #C9E9FE",
"+ c #CFEBFF",
"@ c #D1ECFF",
"# c #D3EDFE",
"$ c #D7EEFF",
"% c #D8EDFE",
"& c #D9EEFF",
"* c #D9F0FE",
"= c #DEF1FF",
"- c #DDF3FF",
"; c #E2F3FD",
": c #E1F3FF",
"> c #E3F4FE",
", c #E6F4FD",
"< c #E4F5FF",
"1 c #E8F5FD",
"2 c #E9F6FF",
"3 c #EEF6FF",
"4 c #EBF8FF",
"5 c #EFF8FF",
"6 c #F0F7FD",
"7 c #F2FAFD",
"8 c #F3FBFD",
"9 c #F0F9FF",
"0 c #F6FBFF",
"q c #F2FCFE",
"w c #F4FCFF",
"e c #F8FBFF",
"r c #F8FCFD",
"t c #FEFEFC",
"y c white",
/* pixels */
"yyyyyyyyyyyyyyyyyyyyyyyyyyyyyyyy",
"yryyyyyyyyyy.......0yyyyyyyy000y",
"y059rr9y0y0.Xoooooo.9ryrr90y933y",
"r5>:94>r8>.Xooo....o.<5992<09r9r",
"y3934%295.Xooo.    .o.*=5==>0r9r",
"y999<#0<5.Xoo.      .o.$5>$<rr9r",
"y09993y<.XXoo.      .o.:=*,2r040",
"y6=30ey:.XXXo. y   y.o.2<>9<4r%0",
"y9*:r905.X.Xo. y   y.o.0y<09=2:y",
"y5=98550.X.Xo.      .X.ry6re:0<y",
"rr5504=r0..XXo.     .X.ry65920<y",
"y08>50=rr>r.XXX.   .X.0r0:92,9<e",
"r90>=9+04$00..XX...X.y3%%=02:92y",
"y920*<O=>*>.XXXoooooX.2292:r%:<y",
"y2>09<4255.XoooooooooX.rr99r<#=y",
"y0=0090500.XoooooooooX.ryr503#3y",
"yy*r8r0550.ooooooooooo.r009r555y",
"y0>>5255*.Xooooooooooo.09>%<>0>y",
"er>$=>=#=.XooooooXooooX.2=>=50>y",
"rr30489<*.XooooooXooooX.$%99933y",
"r5<09ryy>.XoooooX.XooXX.9<089<9y",
"y:=000yr>.XXoXoXX.XXoXX.yyyr=%2t",
"y2=yr#$2>.XXXoXXX.XXXXX.e0r0>02r",
"y9*05=*-=2.XXXXX. XXX.X.62r2rr<r",
"y0<=<y9=0r.X.XX.  .XXX.52=82y0<y",
"y03e9rr4rr<.r...r< ...44<3>90<,y",
"069y0rr59r<2r  084  4*#>50*<0:20",
"9:9y554*=3#2r0 05 >52>**30=>:9<0",
"r#$=2>>52=<>0< 9%*<4*>8*>+*>:920",
"y3=555<0r0922959>5r058080050=*<r",
"y54yyy045585990445992555<450243y",
"yyyryryyyyy0yyryyeyy85808y899ryy"
};
