/* XPM */
static char *_e7044547c6e4cb18a0c98503147b0f2vucb0z1sLfXJngjH[] = {
/* columns rows colors chars-per-pixel */
"32 32 44 1 ",
"  c #E88500",
". c #DCA200",
"X c #FFA100",
"o c #FDA500",
"O c #EABA00",
"+ c #E8BC00",
"@ c #EABC00",
"# c #FDD300",
"$ c #FFE200",
"% c #FFE600",
"& c #FEF06A",
"* c #FEF786",
"= c #FEF787",
"- c #FEF788",
"; c #CEEDFF",
": c #D3EDFE",
"> c #D2EDFF",
", c #D7EEFF",
"< c #D8EDFE",
"1 c #D8EFFF",
"2 c #D9F0FE",
"3 c #DEF1FF",
"4 c #DDF3FF",
"5 c #E2F3FD",
"6 c #E1F3FF",
"7 c #E3F4FE",
"8 c #E7F4FD",
"9 c #E4F5FF",
"0 c #E8F7FE",
"q c #E9F6FF",
"w c #EDF7FF",
"e c #EFF7FF",
"r c #EBF8FF",
"t c #EFF8FF",
"y c #EEF9FF",
"u c #F3FBFD",
"i c #F0F9FF",
"p c #F3FBFE",
"a c #F6FBFF",
"s c #F8FBFF",
"d c #F8FCFD",
"f c #FEFDFC",
"g c #FEFEFC",
"h c white",
/* pixels */
"hhhhhhhhhhhhhhhhhhhhhhhhhhhhhhhh",
"hdhhhhhhhhhhhhhhdhdahhhhhhhhddah",
"hatiddihihdtdhhhiddiidhsiidhiwwh",
"dt76ir7da&&&****--*-*-*Oiq9didid",
"hiiwr<qi++&&**-**-*-**O&O336sdid",
"hwai9:a@++&&OOOOOOOOOO&&OO<9sdtd",
"haiwiw%O@@@&O&&&&&&&&O&&O=*qddri",
"hw3wa%%%O++&OO&&&&&&OO&&==-#qd2d",
"hi26i@@@%%%%*-*--*--*f*h=###3r6h",
"hw3id@%@@%h--*-**-****h%####7a7d",
"dditd@@%@+h*.@OOOOOO.*hO####qaqh",
"hdi7i@%@@Oh@*.......-%h@  @#6iqa",
"didq3XX%@@hO@*ffhff*@@*@  O#6wqh",
"hiqd2XXX@@*@@$fhhfhO@@-@ @O#668h",
"hq9diXXX@@*@@$$hdh$+@@h@@XX#7:3h",
"hi3uaXXX@@-$  $$f$$  O*@@XX#w,qh",
"hh2daXX&@@*$  *ooo*   -OOXX#9iih",
"hd69rX&X@O-$ -     -  *+OXX#7iqh",
"ds9,3XX&@@-$*       * -+@XX#id7h",
"ddiiq&&&@@*-         -*O@XX#awqh",
"dt7ia&&&@$-h==hhh*-ffff+O&X#t6if",
"h66da&&$$***==*****-ff*h@&&&3,qf",
"hq3ha&$$-*+++       O+*-h$&&9dqd",
"hi2it-*-*+++$$     $$+++==$#dd9d",
"haq39d**O++$$$.....$$$+@O=+qda7h",
"hawsidd@+@+###.....###$+@@7th79h",
"aiihuddt@@#####...#####$+t2qa39d",
"i6ihtt033O####.....####+ta476iqs",
"u:,3q37u9399a7,i227q27u27;286iqa",
"ht3tut7dddiqqiti2iddtuhtuutd327h",
"hirhhhuqttdiitarridtqtiiqqiuqtqh",
"hhhdhdhhhhhihhdhhahhiiduuhiiiuhh"
};
